<svg width="20" height="19" viewBox="0 0 20 19" fill="none" xmlns="http://www.w3.org/2000/svg">
<path d="M6.79297 14.7473C6.79297 14.8215 6.70312 14.8809 6.58984 14.8809C6.46094 14.892 6.37109 14.8326 6.37109 14.7473C6.37109 14.673 6.46094 14.6137 6.57422 14.6137C6.69141 14.6025 6.79297 14.6619 6.79297 14.7473ZM5.57813 14.5803C5.55078 14.6545 5.62891 14.7398 5.74609 14.7621C5.84766 14.7992 5.96484 14.7621 5.98828 14.6879C6.01172 14.6137 5.9375 14.5283 5.82031 14.4949C5.71875 14.4689 5.60547 14.5061 5.57813 14.5803ZM7.30469 14.5172C7.19141 14.5432 7.11328 14.6137 7.125 14.699C7.13672 14.7732 7.23828 14.8215 7.35547 14.7955C7.46875 14.7695 7.54687 14.699 7.53516 14.6248C7.52344 14.5543 7.41797 14.5061 7.30469 14.5172ZM9.875 0.296875C4.45703 0.296875 0.3125 4.20449 0.3125 9.35156C0.3125 13.467 3.03906 16.9887 6.93359 18.2281C7.43359 18.3135 7.60938 18.0203 7.60938 17.7791C7.60938 17.549 7.59766 16.2799 7.59766 15.5006C7.59766 15.5006 4.86328 16.0572 4.28906 14.3947C4.28906 14.3947 3.84375 13.3148 3.20312 13.0365C3.20312 13.0365 2.30859 12.4539 3.26562 12.465C3.26562 12.465 4.23828 12.5393 4.77344 13.4225C5.62891 14.8549 7.0625 14.443 7.62109 14.198C7.71094 13.6043 7.96484 13.1924 8.24609 12.9475C6.0625 12.7174 3.85938 12.4168 3.85938 8.84687C3.85938 7.82637 4.15625 7.31426 4.78125 6.66113C4.67969 6.41992 4.34766 5.42539 4.88281 4.14141C5.69922 3.9002 7.57812 5.14336 7.57812 5.14336C8.35938 4.93555 9.19922 4.82793 10.0313 4.82793C10.8633 4.82793 11.7031 4.93555 12.4844 5.14336C12.4844 5.14336 14.3633 3.89648 15.1797 4.14141C15.7148 5.4291 15.3828 6.41992 15.2813 6.66113C15.9063 7.31797 16.2891 7.83008 16.2891 8.84687C16.2891 12.4279 13.9883 12.7137 11.8047 12.9475C12.1641 13.2406 12.4688 13.7973 12.4688 14.6693C12.4688 15.9199 12.457 17.4674 12.457 17.7717C12.457 18.0129 12.6367 18.3061 13.1328 18.2207C17.0391 16.9887 19.6875 13.467 19.6875 9.35156C19.6875 4.20449 15.293 0.296875 9.875 0.296875ZM4.10937 13.0959C4.05859 13.133 4.07031 13.2184 4.13672 13.2889C4.19922 13.3482 4.28906 13.3742 4.33984 13.326C4.39062 13.2889 4.37891 13.2035 4.3125 13.133C4.25 13.0736 4.16016 13.0477 4.10937 13.0959ZM3.6875 12.7953C3.66016 12.8436 3.69922 12.9029 3.77734 12.94C3.83984 12.9771 3.91797 12.966 3.94531 12.9141C3.97266 12.8658 3.93359 12.8064 3.85547 12.7693C3.77734 12.7471 3.71484 12.7582 3.6875 12.7953ZM4.95313 14.1164C4.89063 14.1646 4.91406 14.276 5.00391 14.3465C5.09375 14.4318 5.20703 14.443 5.25781 14.3836C5.30859 14.3354 5.28516 14.224 5.20703 14.1535C5.12109 14.0682 5.00391 14.057 4.95313 14.1164ZM4.50781 13.5709C4.44531 13.608 4.44531 13.7045 4.50781 13.7898C4.57031 13.8752 4.67578 13.9123 4.72656 13.8752C4.78906 13.827 4.78906 13.7305 4.72656 13.6451C4.67188 13.5598 4.57031 13.5227 4.50781 13.5709Z" fill="#D4494C"/>
</svg>
