<svg width="20" height="20" viewBox="0 0 20 20" fill="none" xmlns="http://www.w3.org/2000/svg">
<path d="M5.16719 17.5H1.53906V5.81641H5.16719V17.5ZM3.35117 4.22266C2.19102 4.22266 1.25 3.26172 1.25 2.10157C1.25 1.5443 1.47137 1.00986 1.86542 0.615816C2.25947 0.22177 2.79391 0.000396729 3.35117 0.000396729C3.90844 0.000396729 4.44288 0.22177 4.83692 0.615816C5.23097 1.00986 5.45234 1.5443 5.45234 2.10157C5.45234 3.26172 4.51094 4.22266 3.35117 4.22266ZM18.7461 17.5H15.1258V11.8125C15.1258 10.457 15.0984 8.71876 13.2395 8.71876C11.3531 8.71876 11.0641 10.1914 11.0641 11.7148V17.5H7.43984V5.81641H10.9195V7.41016H10.9703C11.4547 6.49219 12.6379 5.52344 14.4031 5.52344C18.075 5.52344 18.75 7.94141 18.75 11.082V17.5H18.7461Z" fill="#D4494C"/>
</svg>
