<svg width="21" height="103" viewBox="0 0 21 103" fill="none" xmlns="http://www.w3.org/2000/svg">
<path d="M19.9999 102.063H0.363526L0.363525 94.6996C0.363525 93.1911 0.625599 91.9254 1.14975 90.9027C1.67389 89.8736 2.40898 89.0969 3.355 88.5728C4.29463 88.0423 5.39087 87.777 6.64371 87.777C7.90294 87.777 8.99598 88.0455 9.92283 88.5824C10.8433 89.1129 11.556 89.896 12.061 90.9315C12.5595 91.967 12.8088 93.239 12.8088 94.7475V99.9922H9.85571V95.2269C9.85571 94.3448 9.73426 93.6225 9.49137 93.06C9.24208 92.4975 8.88093 92.082 8.40791 91.8136C7.92851 91.5387 7.34044 91.4013 6.64371 91.4013C5.94698 91.4013 5.35252 91.5387 4.86033 91.8136C4.36175 92.0884 3.98462 92.5071 3.72894 93.0696C3.46686 93.6321 3.33583 94.3576 3.33583 95.2461L3.33583 98.506H19.9999V102.063ZM11.1022 91.919L19.9999 87.0579V91.0274L11.1022 95.8022L11.1022 91.919Z" fill="#D4494C"/>
<path d="M20.2875 78.3471C20.2875 79.8237 19.9807 81.0989 19.3671 82.1728C18.747 83.2402 17.8713 84.0616 16.7399 84.6369C15.6022 85.2122 14.263 85.4998 12.7225 85.4998C11.2076 85.4998 9.87808 85.2122 8.73391 84.6369C7.58334 84.0552 6.68845 83.2434 6.04925 82.2015C5.40365 81.1596 5.08085 79.9356 5.08085 78.5293C5.08085 77.6216 5.22787 76.7651 5.5219 75.9597C5.80955 75.1479 6.25699 74.432 6.86423 73.812C7.47148 73.1856 8.24492 72.6934 9.18455 72.3354C10.1178 71.9775 11.23 71.7985 12.5212 71.7985H13.5855V83.8699H11.246L11.246 75.1255C10.5812 75.1319 9.98995 75.2757 9.47219 75.557C8.94804 75.8382 8.53576 76.2314 8.23533 76.7363C7.9349 77.2349 7.78469 77.8166 7.78469 78.4814C7.78469 79.1909 7.95728 79.8141 8.30245 80.351C8.64122 80.888 9.08867 81.3066 9.64477 81.6071C10.1945 81.9011 10.7985 82.0513 11.4569 82.0577H13.4992C14.3557 82.0577 15.0908 81.9011 15.7044 81.5879C16.3117 81.2747 16.7783 80.8368 17.1043 80.2743C17.4239 79.7118 17.5837 79.0534 17.5837 78.2992C17.5837 77.7942 17.5134 77.3372 17.3728 76.9281C17.2257 76.519 17.0116 76.1642 16.7304 75.8638C16.4491 75.5634 16.1007 75.3365 15.6853 75.1831L16.0496 71.9423C16.9061 72.1468 17.654 72.5368 18.2932 73.112C18.926 73.6809 19.4182 74.4096 19.7698 75.2981C20.1149 76.1866 20.2875 77.203 20.2875 78.3471Z" fill="#D4494C"/>
<path d="M9.16537 57.2222L9.51054 60.3863C9.19094 60.4758 8.89051 60.6324 8.60926 60.8561C8.32801 61.0734 8.1011 61.3675 7.92851 61.7382C7.75592 62.1089 7.66963 62.5628 7.66963 63.0997C7.66963 63.822 7.82624 64.4293 8.13945 64.9214C8.45266 65.4072 8.85855 65.6469 9.35713 65.6405C9.7854 65.6469 10.1338 65.4903 10.4022 65.1707C10.6707 64.8447 10.8912 64.3078 11.0638 63.5599L11.6007 61.0479C11.9012 59.6544 12.3774 58.6189 13.0294 57.9413C13.6814 57.2574 14.5347 56.9122 15.5894 56.9058C16.5162 56.9122 17.3344 57.1839 18.0439 57.7208C18.747 58.2513 19.2968 58.9896 19.6931 59.9356C20.0894 60.8817 20.2875 61.9683 20.2875 63.1956C20.2875 64.9981 19.9104 66.4491 19.1561 67.5486C18.3955 68.648 17.3376 69.3032 15.9825 69.5141L15.6565 66.1295C16.3213 65.9761 16.823 65.6501 17.1618 65.1516C17.5006 64.653 17.67 64.0042 17.67 63.2052C17.67 62.3806 17.5006 61.719 17.1618 61.2204C16.823 60.7155 16.4044 60.463 15.9058 60.463C15.4839 60.463 15.1355 60.626 14.8607 60.952C14.5858 61.2716 14.3749 61.7702 14.2279 62.4477L13.7005 64.9598C13.4065 66.3724 12.9111 67.4175 12.2144 68.0951C11.5113 68.7726 10.6228 69.1082 9.54889 69.1018C8.64122 69.1082 7.855 68.8621 7.19023 68.3636C6.51906 67.8586 6.00131 67.1586 5.63696 66.2638C5.26622 65.3625 5.08085 64.3238 5.08085 63.1476C5.08085 61.4218 5.4484 60.0635 6.18348 59.0727C6.91857 58.0756 7.91253 57.4587 9.16537 57.2222Z" fill="#D4494C"/>
<path d="M13.806 44.6571H5.27261L5.27261 41.1862H19.9999V44.5516H17.3823V44.705C18.2069 45.0374 18.8813 45.5839 19.4054 46.3446C19.9296 47.0988 20.1916 48.0289 20.1916 49.1347C20.1916 50.0999 19.9775 50.9532 19.5492 51.6947C19.1146 52.4298 18.485 53.0051 17.6604 53.4205C16.8294 53.836 15.8259 54.0438 14.6497 54.0438H5.27261V50.5729H14.1128C15.0461 50.5729 15.7875 50.3172 16.3372 49.8058C16.887 49.2945 17.1618 48.6233 17.1618 47.7924C17.1618 47.281 17.0372 46.7856 16.7879 46.3062C16.5386 45.8268 16.1679 45.4337 15.6757 45.1269C15.1771 44.8137 14.5539 44.6571 13.806 44.6571Z" fill="#D4494C"/>
<path d="M19.9999 37.617H5.27261V34.2995H7.7751V34.127C6.93135 33.8201 6.27297 33.312 5.79996 32.6025C5.32055 31.8929 5.08085 31.046 5.08085 30.0616C5.08085 29.0645 5.32375 28.2239 5.80955 27.54C6.28895 26.8496 6.94413 26.3638 7.7751 26.0826V25.9292C6.95692 25.6032 6.30493 25.0534 5.81913 24.28C5.32695 23.5002 5.08085 22.5765 5.08085 21.5091C5.08085 20.1539 5.50912 19.0481 6.36565 18.1916C7.22219 17.3351 8.47183 16.9068 10.1146 16.9068L19.9999 16.9068V20.3873L10.6515 20.3873C9.73746 20.3873 9.06949 20.6302 8.64761 21.1159C8.21935 21.6017 8.00521 22.1962 8.00521 22.8993C8.00521 23.7367 8.26729 24.3919 8.79144 24.8649C9.30919 25.3315 9.98355 25.5648 10.8145 25.5648L19.9999 25.5648V28.9686H10.5077C9.74705 28.9686 9.1398 29.1987 8.68597 29.6589C8.23213 30.1128 8.00521 30.7072 8.00521 31.4423C8.00521 31.9409 8.13305 32.3947 8.38874 32.8038C8.63803 33.2129 8.99278 33.5389 9.45301 33.7818C9.90685 34.0247 10.4374 34.1461 11.0446 34.1461H19.9999V37.617Z" fill="#D4494C"/>
<path d="M20.2875 6.86568C20.2875 8.34225 19.9807 9.61746 19.3671 10.6913C18.747 11.7588 17.8713 12.5802 16.7399 13.1555C15.6022 13.7307 14.263 14.0184 12.7225 14.0184C11.2076 14.0184 9.87808 13.7307 8.73391 13.1555C7.58334 12.5738 6.68845 11.762 6.04925 10.7201C5.40365 9.67818 5.08085 8.45411 5.08085 7.04786C5.08085 6.14019 5.22787 5.28365 5.5219 4.47825C5.80954 3.66646 6.25699 2.95056 6.86423 2.33053C7.47148 1.70411 8.24491 1.21192 9.18454 0.853964C10.1178 0.496009 11.23 0.317032 12.5212 0.317032L13.5855 0.317032L13.5855 12.3884H11.246V3.64409C10.5812 3.65048 9.98994 3.79431 9.47219 4.07556C8.94804 4.35681 8.53575 4.74992 8.23533 5.25489C7.9349 5.75347 7.78469 6.33514 7.78469 6.99992C7.78469 7.70943 7.95727 8.33266 8.30244 8.86959C8.64122 9.40652 9.08866 9.8252 9.64477 10.1256C10.1945 10.4197 10.7985 10.5699 11.4569 10.5763H13.4992C14.3557 10.5763 15.0908 10.4197 15.7044 10.1065C16.3117 9.79324 16.7783 9.35538 17.1043 8.79288C17.4239 8.23039 17.5837 7.572 17.5837 6.81774C17.5837 6.31277 17.5134 5.85574 17.3728 5.44665C17.2257 5.03756 17.0116 4.6828 16.7304 4.38237C16.4491 4.08195 16.1007 3.85503 15.6853 3.70162L16.0496 0.460854C16.9061 0.665399 17.654 1.05531 18.2932 1.6306C18.926 2.19949 19.4182 2.92818 19.7698 3.81668C20.1149 4.70517 20.2875 5.72151 20.2875 6.86568Z" fill="#D4494C"/>
</svg>
