<svg width="512" height="512" viewBox="0 0 512 512" fill="none" xmlns="http://www.w3.org/2000/svg">
<path fill-rule="evenodd" clip-rule="evenodd" d="M80.6226 109.32C80.8875 109.838 108.707 157.182 142.621 214.513C176.535 271.845 211.244 330.473 219.722 344.741L234.957 370.683L229.393 381.06C215.616 406.223 202.235 428.404 200.646 428.404C199.718 428.404 192.432 417.119 184.484 403.37C171.501 381.189 150.172 345.001 121.293 296.1C48.5634 173.007 12 110.357 12 109.06C12 106.855 79.6952 107.114 80.6226 109.32ZM499.909 107.633C500.969 108.671 492.755 123.717 476.328 150.826C469.572 161.852 459.239 179.362 453.145 189.739C452.522 190.8 451.822 191.992 451.058 193.295C444.345 204.73 432.601 224.735 423.205 240.455C412.74 258.096 403.599 273.92 402.937 275.736C401.744 278.719 403.864 283 421.616 313.222C432.611 332.03 443.607 350.319 445.991 354.08C448.376 357.712 451.555 363.03 453.012 365.884L455.662 370.942L438.838 399.738C429.697 415.562 421.483 428.274 420.688 428.014C420.026 427.755 413.137 416.73 405.454 403.499C377.501 355.118 367.698 338.904 366.373 338.904C365.578 338.904 361.604 344.612 357.497 351.486C332.724 393.642 325.836 405.575 320.272 415.562C313.383 428.144 311.131 430.609 309.011 428.144C308.349 427.236 301.328 415.044 293.511 401.165C292.288 399.028 290.98 396.742 289.619 394.362C282.137 381.284 273.059 365.414 267.679 356.415C266.145 353.819 263.779 349.811 260.806 344.775C251.452 328.93 236.085 302.901 221.709 278.59C214.778 266.819 206.339 252.514 197.547 237.611C182.311 211.784 166.017 184.163 154.677 164.835C136.66 134.353 121.955 109.06 121.955 108.671C121.955 108.282 137.322 108.022 156.134 108.022H190.313L198.394 121.901C202.222 128.716 208.691 139.707 213.62 148.083C214.32 149.273 214.989 150.41 215.616 151.475C220.782 160.036 231.91 178.973 240.521 193.63C249.132 208.287 260.26 226.966 265.162 235.137C268.077 240.132 273.566 249.392 279.51 259.42C283.291 265.799 287.257 272.488 290.862 278.59C308.614 308.553 309.806 310.368 311.396 310.368C312.985 310.368 329.942 280.924 329.942 278.201C329.942 276.904 320.934 260.43 309.938 241.752C299.075 222.945 290.464 207.25 290.862 206.731C291.392 206.342 306.627 205.823 324.776 205.564L357.762 205.174L360.147 209.195C362.724 213.857 364.092 216.617 365.675 216.741C367.836 216.909 370.396 212.164 376.971 200.635C382.8 190.777 389.424 179.622 391.809 175.86C394.193 172.099 396.18 168.467 396.18 167.689C396.18 166.781 375.514 166.391 330.87 166.391H265.559L248.735 137.985C239.461 122.29 231.91 109.19 231.91 108.801C231.91 108.412 237.077 107.893 243.568 107.633C266.221 106.855 499.114 106.725 499.909 107.633Z" fill="#b12a29"/>
</svg>
