<svg width="73" height="73" viewBox="0 0 73 73" fill="none" xmlns="http://www.w3.org/2000/svg">
<circle cx="36.5" cy="36.5" r="35" stroke="#973B41" stroke-width="3"/>
<path d="M63.0442 30.6009L61.1322 28.4499C60.6041 27.8558 59.7482 27.8558 59.2201 28.4499L58.2645 29.5249L55.8227 26.7779C56.2984 24.7524 55.8532 22.5101 54.4413 20.9218L50.6181 16.6207C45.3391 10.6819 36.7793 10.6819 31.4994 16.6207L39.1467 20.9218V22.704C39.1467 24.317 39.7162 25.8645 40.7309 27.0051L44.8828 31.6759C46.2947 33.2642 48.2878 33.7651 50.0883 33.23L52.5301 35.977L51.5745 37.052C51.0465 37.6461 51.0465 38.609 51.5745 39.203L53.4866 41.354C54.0146 41.9481 54.8705 41.9481 55.3986 41.354L63.0459 32.7509C63.5723 32.1578 63.5723 31.195 63.0442 30.6009ZM38.8189 29.1561C38.5063 28.8044 38.241 28.4156 37.9866 28.0202L16.4329 50.6586C14.2725 52.9284 14.2142 56.76 16.3037 59.1115C18.3931 61.4631 21.7998 61.3975 23.8175 58.9661L43.9374 34.7214C43.6028 34.4448 43.2699 34.1634 42.9708 33.8269L38.8189 29.1561Z" fill="#973B41"/>
</svg>
