<svg width="73" height="73" viewBox="0 0 73 73" fill="none" xmlns="http://www.w3.org/2000/svg">
<path d="M32.5571 15.4297C24.0149 17.0969 17.1313 23.9633 15.4469 32.4797C12.2672 48.55 26.7649 60.5297 37.6875 58.8367C41.2282 58.2867 42.9641 54.1446 41.3399 50.9563C39.3547 47.0547 42.1907 42.5 46.5735 42.5H53.4227C56.4993 42.5 58.9915 39.9563 59 36.8883C58.9571 23.3446 46.6336 12.6883 32.5571 15.4297ZM23.25 42.5C21.729 42.5 20.5 41.2711 20.5 39.75C20.5 38.2289 21.729 37 23.25 37C24.7711 37 26 38.2289 26 39.75C26 41.2711 24.7711 42.5 23.25 42.5ZM26 31.5C24.479 31.5 23.25 30.2711 23.25 28.75C23.25 27.2289 24.479 26 26 26C27.5211 26 28.75 27.2289 28.75 28.75C28.75 30.2711 27.5211 31.5 26 31.5ZM37 26C35.479 26 34.25 24.7711 34.25 23.25C34.25 21.7289 35.479 20.5 37 20.5C38.5211 20.5 39.75 21.7289 39.75 23.25C39.75 24.7711 38.5211 26 37 26ZM48 31.5C46.479 31.5 45.25 30.2711 45.25 28.75C45.25 27.2289 46.479 26 48 26C49.5211 26 50.75 27.2289 50.75 28.75C50.75 30.2711 49.5211 31.5 48 31.5Z" fill="#973B41"/>
<circle cx="36.5" cy="36.5" r="35" stroke="#973B41" stroke-width="3"/>
</svg>
