<svg width="1284" height="1755" viewBox="0 0 1284 1755" fill="none" xmlns="http://www.w3.org/2000/svg">
<mask id="mask0_195_114" style="mask-type:alpha" maskUnits="userSpaceOnUse" x="0" y="0" width="1284" height="1755">
<rect opacity="0.3" width="1284" height="1755" fill="#CCD1D7"/>
</mask>
<g mask="url(#mask0_195_114)">
<rect x="417.129" y="-1013" width="77.9287" height="2339.29" transform="rotate(45 417.129 -1013)" fill="#D4494C"/>
<rect x="995.972" y="-434.156" width="77.9287" height="2339.29" transform="rotate(45 995.972 -434.156)" fill="#D4494C"/>
<rect x="532.897" y="-897.231" width="77.9287" height="2339.29" transform="rotate(45 532.897 -897.231)" fill="#D4494C"/>
<rect x="1111.74" y="-318.387" width="77.9287" height="2339.29" transform="rotate(45 1111.74 -318.387)" fill="#D4494C"/>
<rect x="648.666" y="-781.462" width="77.9287" height="2339.29" transform="rotate(45 648.666 -781.462)" fill="#D4494C"/>
<rect x="1227.51" y="-202.619" width="77.9287" height="2339.29" transform="rotate(45 1227.51 -202.619)" fill="#D4494C"/>
<rect x="764.435" y="-665.693" width="77.9287" height="2339.29" transform="rotate(45 764.435 -665.693)" fill="#D4494C"/>
<rect x="1343.28" y="-86.8496" width="77.9287" height="2339.29" transform="rotate(45 1343.28 -86.8496)" fill="#D4494C"/>
<rect x="880.204" y="-549.925" width="77.9287" height="2339.29" transform="rotate(45 880.204 -549.925)" fill="#D4494C"/>
<rect x="1459.05" y="28.9191" width="77.9287" height="2339.29" transform="rotate(45 1459.05 28.9191)" fill="#D4494C"/>
<rect x="1570.6" y="140.468" width="77.9287" height="2339.29" transform="rotate(45 1570.6 140.468)" fill="#D4494C"/>
<rect x="2145.26" y="715.132" width="77.9287" height="2339.29" transform="rotate(45 2145.26 715.132)" fill="#D4494C"/>
<rect x="1682.19" y="252.057" width="77.9287" height="2339.29" transform="rotate(45 1682.19 252.057)" fill="#D4494C"/>
<rect x="2261.03" y="830.901" width="77.9287" height="2339.29" transform="rotate(45 2261.03 830.901)" fill="#D4494C"/>
<rect x="1797.95" y="367.826" width="77.9287" height="2339.29" transform="rotate(45 1797.95 367.826)" fill="#D4494C"/>
<rect x="2376.8" y="946.669" width="77.9287" height="2339.29" transform="rotate(45 2376.8 946.669)" fill="#D4494C"/>
<rect x="1913.72" y="483.595" width="77.9287" height="2339.29" transform="rotate(45 1913.72 483.595)" fill="#D4494C"/>
<rect x="2492.57" y="1062.44" width="77.9287" height="2339.29" transform="rotate(45 2492.57 1062.44)" fill="#D4494C"/>
<rect x="2029.49" y="599.364" width="77.9287" height="2339.29" transform="rotate(45 2029.49 599.364)" fill="#D4494C"/>
<rect x="2608.34" y="1178.21" width="77.9287" height="2339.29" transform="rotate(45 2608.34 1178.21)" fill="#D4494C"/>
</g>
</svg>
