<svg width="73" height="73" viewBox="0 0 73 73" fill="none" xmlns="http://www.w3.org/2000/svg">
<path d="M50.1933 23.6816H23.6815C21.4964 23.6813 19.345 24.2213 17.4191 25.2535C15.4931 26.2858 13.8522 27.7782 12.6426 29.598C11.4329 31.4178 10.692 33.5084 10.4858 35.6838C10.2796 37.8592 10.6144 40.0519 11.4606 42.0665C12.3068 44.0812 13.638 45.8554 15.3357 47.2312C17.0334 48.6069 19.0449 49.5415 21.1912 49.9518C23.3375 50.3621 25.5519 50.2353 27.6374 49.5828C29.7228 48.9302 31.6145 47.7722 33.1441 46.2116H40.7248C42.2543 47.772 44.1458 48.93 46.2309 49.5826C48.3161 50.2352 50.5303 50.3621 52.6764 49.9521C54.8225 49.5421 56.8339 48.6078 58.5316 47.2325C60.2294 45.8572 61.5607 44.0835 62.4072 42.0692C63.2538 40.055 63.5891 37.8627 63.3835 35.6874C63.1779 33.5122 62.4377 31.4216 61.2288 29.6016C60.0199 27.7816 58.3797 26.2888 56.4544 25.2559C54.529 24.223 52.3782 23.6822 50.1933 23.6816ZM30.9706 37.9285C30.9706 38.1921 30.8659 38.445 30.6795 38.6314C30.4931 38.8178 30.2403 38.9225 29.9767 38.9225H25.6695V43.2297C25.6695 43.4933 25.5647 43.7462 25.3783 43.9326C25.1919 44.119 24.9391 44.2237 24.6755 44.2237H22.6875C22.4239 44.2237 22.1711 44.119 21.9847 43.9326C21.7983 43.7462 21.6936 43.4933 21.6936 43.2297V38.9225H17.3863C17.1227 38.9225 16.8699 38.8178 16.6835 38.6314C16.4971 38.445 16.3924 38.1921 16.3924 37.9285V35.9406C16.3924 35.677 16.4971 35.4241 16.6835 35.2377C16.8699 35.0513 17.1227 34.9466 17.3863 34.9466H21.6936V30.6394C21.6936 30.3758 21.7983 30.123 21.9847 29.9365C22.1711 29.7501 22.4239 29.6454 22.6875 29.6454H24.6755C24.9391 29.6454 25.1919 29.7501 25.3783 29.9365C25.5647 30.123 25.6695 30.3758 25.6695 30.6394V34.9466H29.9767C30.2403 34.9466 30.4931 35.0513 30.6795 35.2377C30.8659 35.4241 30.9706 35.677 30.9706 35.9406V37.9285ZM48.8622 44.2237C48.2069 44.2237 47.5663 44.0294 47.0214 43.6653C46.4766 43.3012 46.0519 42.7838 45.8011 42.1784C45.5504 41.573 45.4847 40.9068 45.6126 40.2641C45.7404 39.6214 46.056 39.031 46.5194 38.5676C46.9827 38.1043 47.5731 37.7887 48.2158 37.6609C48.8585 37.533 49.5247 37.5986 50.1301 37.8494C50.7355 38.1002 51.253 38.5249 51.617 39.0697C51.9811 39.6146 52.1754 40.2552 52.1754 40.9105C52.1754 41.7892 51.8263 42.6319 51.205 43.2533C50.5836 43.8746 49.7409 44.2237 48.8622 44.2237ZM54.1634 36.2719C53.5081 36.2719 52.8675 36.0776 52.3226 35.7135C51.7778 35.3495 51.3531 34.832 51.1023 34.2266C50.8516 33.6212 50.7859 32.955 50.9138 32.3123C51.0416 31.6696 51.3572 31.0792 51.8205 30.6158C52.2839 30.1525 52.8743 29.8369 53.517 29.7091C54.1597 29.5812 54.8259 29.6469 55.4313 29.8976C56.0367 30.1484 56.5542 30.5731 56.9182 31.1179C57.2823 31.6628 57.4766 32.3034 57.4766 32.9587C57.4766 33.8374 57.1275 34.6801 56.5062 35.3015C55.8848 35.9228 55.0421 36.2719 54.1634 36.2719Z" fill="#973B41"/>
<circle cx="36.5" cy="36.5" r="35" stroke="#973B41" stroke-width="3"/>
</svg>
