<svg width="73" height="73" viewBox="0 0 73 73" fill="none" xmlns="http://www.w3.org/2000/svg">
<circle cx="36.5" cy="36.5" r="35" stroke="#973B41" stroke-width="3"/>
<path d="M32.6116 37.3085C33.0275 37.7222 33.7015 37.7222 34.1173 37.3085L34.8699 36.5598C35.2857 36.1461 35.2857 35.4755 34.8699 35.0618L32.4932 32.6979L34.8692 30.3333C35.2851 29.9196 35.2851 29.249 34.8692 28.8353L34.1167 28.0866C33.7008 27.6728 33.0268 27.6728 32.611 28.0866L28.7292 31.9485C28.3134 32.3622 28.3134 33.0328 28.7292 33.4465L32.6116 37.3085ZM38.9998 36.5605L39.7523 37.3091C40.1682 37.7229 40.8422 37.7229 41.258 37.3091L45.1398 33.4472C45.5556 33.0335 45.5556 32.3629 45.1398 31.9492L41.258 28.0872C40.8422 27.6735 40.1682 27.6735 39.7523 28.0872L38.9998 28.8359C38.5839 29.2497 38.5839 29.9202 38.9998 30.334L41.3758 32.6979L38.9998 35.0624C38.5839 35.4761 38.5839 36.1467 38.9998 36.5605ZM57.1616 47.526H41.0291C40.9799 48.8373 40.0504 49.6443 38.8507 49.6443H34.8053C33.5618 49.6443 32.6083 48.4878 32.6249 47.526H16.7074C16.1219 47.526 15.6428 48.0026 15.6428 48.5851V49.6443C15.6428 51.9744 17.5591 53.8809 19.9012 53.8809H53.9678C56.3099 53.8809 58.2262 51.9744 58.2262 49.6443V48.5851C58.2262 48.0026 57.7471 47.526 57.1616 47.526ZM53.9678 23.1655C53.9678 21.4179 52.5306 19.988 50.7741 19.988H23.0949C21.3383 19.988 19.9012 21.4179 19.9012 23.1655V45.4077H53.9678V23.1655ZM49.7095 41.1711H24.1595V24.2246H49.7095V41.1711Z" fill="#973B41"/>
</svg>
