<svg width="29" height="23" viewBox="0 0 29 23" fill="none" xmlns="http://www.w3.org/2000/svg">
<path d="M11.556 11.7538C11.8393 12.0346 12.2983 12.0346 12.5815 11.7538L13.094 11.2457C13.3772 10.965 13.3772 10.5099 13.094 10.2292L11.4754 8.625L13.0935 7.02039C13.3767 6.73963 13.3767 6.28457 13.0935 6.00381L12.581 5.49574C12.2978 5.21498 11.8388 5.21498 11.5556 5.49574L8.91206 8.11648C8.62886 8.39725 8.62886 8.8523 8.91206 9.13307L11.556 11.7538ZM15.9065 11.2462L16.419 11.7543C16.7022 12.035 17.1612 12.035 17.4444 11.7543L20.0879 9.13352C20.3711 8.85275 20.3711 8.3977 20.0879 8.11693L17.4444 5.49619C17.1612 5.21543 16.7022 5.21543 16.419 5.49619L15.9065 6.00426C15.6233 6.28502 15.6233 6.74008 15.9065 7.02084L17.5246 8.625L15.9065 10.2296C15.6233 10.5104 15.6233 10.9654 15.9065 11.2462ZM28.275 18.6875H17.2885C17.255 19.5774 16.622 20.125 15.805 20.125H13.05C12.2031 20.125 11.5538 19.3402 11.5651 18.6875H0.725C0.32625 18.6875 0 19.0109 0 19.4063V20.125C0 21.7063 1.305 23 2.9 23H26.1C27.695 23 29 21.7063 29 20.125V19.4063C29 19.0109 28.6738 18.6875 28.275 18.6875ZM26.1 2.15625C26.1 0.970313 25.1213 0 23.925 0H5.075C3.87875 0 2.9 0.970313 2.9 2.15625V17.25H26.1V2.15625ZM23.2 14.375H5.8V2.875H23.2V14.375Z" fill="#973B41"/>
</svg>
