<svg width="34" height="17" viewBox="0 0 34 17" fill="none" xmlns="http://www.w3.org/2000/svg">
<path d="M24.7548 8.41741e-08H8.25118C6.89092 -0.000194206 5.55172 0.335958 4.3528 0.97853C3.15388 1.6211 2.13244 2.55015 1.37943 3.68297C0.626418 4.81579 0.165195 6.11723 0.0368227 7.47142C-0.0915494 8.82561 0.116913 10.1905 0.64365 11.4447C1.17039 12.6988 1.99905 13.8032 3.05588 14.6596C4.1127 15.5161 5.36489 16.0979 6.70095 16.3533C8.03702 16.6087 9.41551 16.5298 10.7137 16.1235C12.0119 15.7173 13.1895 14.9964 14.1417 14.025H18.8607C19.8128 14.9963 20.9902 15.7172 22.2882 16.1234C23.5863 16.5296 24.9646 16.6087 26.3005 16.3534C27.6365 16.0982 28.8886 15.5166 29.9454 14.6605C31.0023 13.8044 31.8311 12.7002 32.358 11.4463C32.885 10.1925 33.0937 8.82774 32.9658 7.47367C32.8378 6.11959 32.377 4.81817 31.6244 3.68523C30.8719 2.55229 29.8509 1.62298 28.6524 0.980022C27.4538 0.337064 26.1149 0.000400908 24.7548 8.41741e-08ZM12.7887 8.86875C12.7887 9.03285 12.7235 9.19023 12.6075 9.30627C12.4914 9.42231 12.334 9.4875 12.1699 9.4875H9.48868V12.1687C9.48868 12.3329 9.42349 12.4902 9.30745 12.6063C9.19142 12.7223 9.03403 12.7875 8.86993 12.7875H7.63243C7.46833 12.7875 7.31095 12.7223 7.19491 12.6063C7.07887 12.4902 7.01368 12.3329 7.01368 12.1687V9.4875H4.33243C4.16833 9.4875 4.01095 9.42231 3.89491 9.30627C3.77887 9.19023 3.71368 9.03285 3.71368 8.86875V7.63125C3.71368 7.46715 3.77887 7.30977 3.89491 7.19373C4.01095 7.07769 4.16833 7.0125 4.33243 7.0125H7.01368V4.33125C7.01368 4.16715 7.07887 4.00977 7.19491 3.89373C7.31095 3.77769 7.46833 3.7125 7.63243 3.7125H8.86993C9.03403 3.7125 9.19142 3.77769 9.30745 3.89373C9.42349 4.00977 9.48868 4.16715 9.48868 4.33125V7.0125H12.1699C12.334 7.0125 12.4914 7.07769 12.6075 7.19373C12.7235 7.30977 12.7887 7.46715 12.7887 7.63125V8.86875ZM23.9262 12.7875C23.5183 12.7875 23.1195 12.6665 22.7803 12.4399C22.4411 12.2133 22.1768 11.8912 22.0207 11.5143C21.8646 11.1374 21.8237 10.7227 21.9033 10.3226C21.9829 9.92254 22.1793 9.55504 22.4678 9.26659C22.7562 8.97815 23.1237 8.78171 23.5238 8.70213C23.9239 8.62255 24.3386 8.66339 24.7155 8.8195C25.0923 8.9756 25.4145 9.23996 25.6411 9.57914C25.8677 9.91831 25.9887 10.3171 25.9887 10.725C25.9887 11.272 25.7714 11.7966 25.3846 12.1834C24.9978 12.5702 24.4732 12.7875 23.9262 12.7875ZM27.2262 7.8375C26.8183 7.8375 26.4195 7.71654 26.0803 7.48991C25.7411 7.26328 25.4768 6.94116 25.3207 6.56428C25.1646 6.18741 25.1237 5.77271 25.2033 5.37263C25.2829 4.97254 25.4793 4.60504 25.7678 4.31659C26.0562 4.02815 26.4237 3.83171 26.8238 3.75213C27.2239 3.67255 27.6386 3.71339 28.0155 3.8695C28.3923 4.0256 28.7145 4.28996 28.9411 4.62914C29.1677 4.96831 29.2887 5.36708 29.2887 5.775C29.2887 6.32201 29.0714 6.84661 28.6846 7.23341C28.2978 7.6202 27.7732 7.8375 27.2262 7.8375Z" fill="#973B41"/>
</svg>
