<svg width="22" height="22" viewBox="0 0 22 22" fill="none" xmlns="http://www.w3.org/2000/svg">
<path d="M8.7782 0.216353C4.507 1.04996 1.06513 4.48322 0.222918 8.74149C-1.36696 16.7768 5.88204 22.7667 11.3435 21.9202C13.1139 21.6452 13.9818 19.5741 13.1697 17.9799C12.1771 16.0291 13.5951 13.7517 15.7866 13.7517H19.2113C20.7496 13.7517 21.9957 12.4798 22 10.9458C21.9785 4.17384 15.8166 -1.15437 8.7782 0.216353ZM4.12457 13.7517C3.36401 13.7517 2.74954 13.1373 2.74954 12.3767C2.74954 11.6161 3.36401 11.0017 4.12457 11.0017C4.88514 11.0017 5.49961 11.6161 5.49961 12.3767C5.49961 13.1373 4.88514 13.7517 4.12457 13.7517ZM5.49961 8.25164C4.73904 8.25164 4.12457 7.63717 4.12457 6.87662C4.12457 6.11606 4.73904 5.50159 5.49961 5.50159C6.26017 5.50159 6.87464 6.11606 6.87464 6.87662C6.87464 7.63717 6.26017 8.25164 5.49961 8.25164ZM10.9997 5.50159C10.2392 5.50159 9.6247 4.88713 9.6247 4.12657C9.6247 3.36601 10.2392 2.75155 10.9997 2.75155C11.7603 2.75155 12.3748 3.36601 12.3748 4.12657C12.3748 4.88713 11.7603 5.50159 10.9997 5.50159ZM16.4999 8.25164C15.7393 8.25164 15.1248 7.63717 15.1248 6.87662C15.1248 6.11606 15.7393 5.50159 16.4999 5.50159C17.2604 5.50159 17.8749 6.11606 17.8749 6.87662C17.8749 7.63717 17.2604 8.25164 16.4999 8.25164Z" fill="#973B41"/>
</svg>
