<svg width="25" height="25" viewBox="0 0 25 25" fill="none" xmlns="http://www.w3.org/2000/svg">
<path d="M24.7965 9.46961L23.8142 8.36464C23.543 8.05947 23.1033 8.05947 22.832 8.36464L22.3411 8.91688L21.0868 7.50576C21.3312 6.46524 21.1024 5.3134 20.3772 4.49749L18.4132 2.28803C15.7014 -0.762724 11.3042 -0.762724 8.59194 2.28803L12.5203 4.49749V5.41301C12.5203 6.24161 12.8129 7.03653 13.3342 7.62246L15.467 10.0219C16.1922 10.8378 17.2161 11.0951 18.141 10.8202L19.3954 12.2313L18.9045 12.7836C18.6332 13.0887 18.6332 13.5833 18.9045 13.8885L19.8867 14.9935C20.158 15.2987 20.5976 15.2987 20.8689 14.9935L24.7973 10.5741C25.0677 10.2694 25.0677 9.77479 24.7965 9.46961ZM12.3519 8.72743C12.1913 8.54677 12.0551 8.34706 11.9244 8.14394L0.852308 19.7732C-0.257507 20.9392 -0.287455 22.9075 0.785901 24.1155C1.85926 25.3235 3.60927 25.2898 4.64573 24.0408L14.9813 11.5863C14.8094 11.4442 14.6384 11.2997 14.4848 11.1268L12.3519 8.72743Z" fill="#973B41"/>
</svg>
