<svg xmlns="http://www.w3.org/2000/svg" width="300" height="300" id="adobe-illustrator"><defs><radialGradient id="a" cx="114.756" cy="215.297" r="207.57" gradientTransform="translate(0 .279)" gradientUnits="userSpaceOnUse"><stop offset="0" stop-color="#423325" stop-opacity=".98"></stop><stop offset="1" stop-color="#1c0a00"></stop></radialGradient></defs><g data-name="Adobe illustrator"><path fill="url(#a)" d="M24.8 155.549h273.121v273.118H24.8Z" data-name="Path 1" transform="translate(-11.362 -142.108)"></path><path fill="#ff7f18" d="M12.5 12.82h275v274.359h-275ZM0 300h300V0H0Zm196.5-193.077c0-1.026.375-1.539 1.5-1.539h19.625c1 0 1.5.385 1.5 1.539v101.154c0 1.025-.25 1.538-1.5 1.538H198.25c-1.25 0-1.625-.641-1.625-1.666V106.923h-.125Zm-1.375-29.1c0-8.205 5.625-13.077 12.75-13.077 7.625 0 12.75 5.256 12.75 13.077 0 8.461-5.375 13.077-13 13.077-7.25-.003-12.5-4.618-12.5-13.08Zm-56.25 71.282c-3.5-14.231-11.749-45.256-14.875-60.256h-.25c-2.625 15-9.25 40.384-14.5 60.256Zm-34.75 20.77-9.875 38.458c-.25 1.025-.625 1.281-1.875 1.281H74c-1.25 0-1.5-.385-1.25-1.923l35.5-127.437c.625-2.307 1-4.359 1.25-10.641 0-.9.375-1.282 1-1.282h26.25c.875 0 1.25.256 1.5 1.282L178 207.948c.25 1.025 0 1.666-1 1.666h-20.75c-1 0-1.625-.256-1.875-1.153l-10.25-38.59h-40Z" data-name="Path 2"></path></g></svg>