<svg xmlns="http://www.w3.org/2000/svg" width="666.667" height="666.667" fill-rule="evenodd" clip-rule="evenodd" image-rendering="optimizeQuality" shape-rendering="geometricPrecision" text-rendering="geometricPrecision" viewBox="0 0 17639 17639" id="adobe"><path fill="#87bcf6" d="M1082 1129h15476v15381H1082z"></path><path fill="#252653" d="M2379 2418h12882v12803H2379z"></path><path fill="#87bcf6" d="M12556 7176c-1146-578-3119-298-3119 1210 0 1123 777 1565 1727 1936 1350 527 38 1523-1610 493 0 0-59-29-88 0s-29 58-29 88v1082c576 295 1006 445 1671 438 2145-22 2454-2076 1313-2866-207-144-761-431-936-498-907-346-830-838-542-1086 318-275 1200 141 1571 373 225 139 262-34 261-186l-3-719c0-171-59-185-216-265zM5932 8972V6338c0-13 46-58 58-58 1116-57 1751 161 1808 1353 65 1368-1082 1397-1866 1397v-58zM4586 5314v7081h1346v-2282c1654 118 3146-475 3146-2387 0-771-240-1547-809-2016-795-656-2653-510-3683-396z"></path></svg>