<svg width="17" height="17" viewBox="0 0 17 17" fill="none" xmlns="http://www.w3.org/2000/svg">
<path d="M15.0312 0.1875H1.96875C0.985352 0.1875 0.1875 0.985352 0.1875 1.96875V15.0312C0.1875 16.0146 0.985352 16.8125 1.96875 16.8125H15.0312C16.0146 16.8125 16.8125 16.0146 16.8125 15.0312V1.96875C16.8125 0.985352 16.0146 0.1875 15.0312 0.1875ZM4.90039 13.2686C4.69629 13.6248 4.23984 13.7436 3.8873 13.5395C3.53105 13.3354 3.4123 12.8789 3.61641 12.5264L4.14707 11.6098C4.74453 11.4279 5.23438 11.5689 5.6166 12.0328L4.90039 13.2686ZM10.0549 11.2684H3.30469C2.89648 11.2684 2.5625 10.9344 2.5625 10.5262C2.5625 10.118 2.89648 9.78398 3.30469 9.78398H5.19727L7.62422 5.5832L6.86348 4.26953C6.65937 3.91328 6.78184 3.46055 7.13437 3.25645C7.49062 3.05234 7.94336 3.1748 8.14746 3.52734L8.47773 4.09883L8.80801 3.52734C9.01211 3.17109 9.46855 3.05234 9.82109 3.25645C10.1773 3.46055 10.2961 3.91699 10.092 4.26953L6.90801 9.78398H9.2125C9.96211 9.78398 10.3814 10.6635 10.0549 11.2684ZM13.6953 11.2684H12.6191L13.3465 12.5264C13.5506 12.8826 13.4281 13.3354 13.0756 13.5395C12.7193 13.7436 12.2666 13.6211 12.0625 13.2686C10.8416 11.157 9.92871 9.56875 9.31641 8.51484C8.69668 7.43867 9.13828 6.3625 9.57988 5.99883C10.066 6.84121 10.7934 8.10293 11.7656 9.78398H13.6953C14.1035 9.78398 14.4375 10.118 14.4375 10.5262C14.4375 10.9381 14.1035 11.2684 13.6953 11.2684Z" fill="#D4494C"/>
</svg>
