<svg width="19" height="19" viewBox="0 0 19 19" fill="none" xmlns="http://www.w3.org/2000/svg">
<path d="M12.1204 6.87976C14.3376 9.09924 14.3071 12.6576 12.1337 14.8431C12.1297 14.8475 12.1248 14.8523 12.1204 14.8568L9.62663 17.3505C7.42716 19.55 3.84874 19.5497 1.6496 17.3505C-0.549868 15.1514 -0.549868 11.5726 1.6496 9.37351L3.02659 7.99653C3.39174 7.63138 4.0206 7.87407 4.03945 8.39011C4.0635 9.04777 4.18143 9.7085 4.39904 10.3466C4.47274 10.5626 4.42008 10.8016 4.25865 10.963L3.773 11.4487C2.73298 12.4887 2.70036 14.1821 3.73014 15.2323C4.77009 16.2929 6.47943 16.2992 7.52736 15.2513L10.0211 12.7579C11.0673 11.7117 11.0629 10.0208 10.0211 8.97904C9.88377 8.84196 9.74542 8.73545 9.63736 8.66105C9.56091 8.60855 9.49779 8.53892 9.45303 8.4577C9.40827 8.37648 9.38311 8.28592 9.37956 8.19325C9.36487 7.80111 9.5038 7.39703 9.81367 7.08717L10.595 6.30583C10.7998 6.10095 11.1213 6.07579 11.3588 6.24159C11.6309 6.43157 11.8857 6.64512 12.1204 6.87976ZM17.3504 1.64949C15.1513 -0.549683 11.5728 -0.549979 9.37336 1.64949L6.87961 4.14324C6.87516 4.1477 6.87034 4.15252 6.86625 4.15697C4.69291 6.34242 4.66244 9.9008 6.87961 12.1203C7.11425 12.3549 7.36907 12.5684 7.64114 12.7584C7.87871 12.9242 8.20015 12.899 8.405 12.6942L9.1863 11.9128C9.49616 11.603 9.6351 11.1989 9.6204 10.8068C9.61685 10.7141 9.59169 10.6235 9.54693 10.5423C9.50217 10.4611 9.43905 10.3914 9.3626 10.3389C9.25454 10.2645 9.1162 10.158 8.97885 10.021C7.93708 8.97919 7.9327 7.28826 8.97885 6.24211L11.4726 3.74873C12.5205 2.7008 14.2298 2.70711 15.2698 3.76766C16.2996 4.81785 16.267 6.5113 15.227 7.55133L14.7413 8.03698C14.5799 8.19841 14.5272 8.43739 14.6009 8.65344C14.8185 9.2915 14.9365 9.95223 14.9605 10.6099C14.9794 11.1259 15.6082 11.3686 15.9734 11.0035L17.3504 9.62649C19.5499 7.42742 19.5499 3.84859 17.3504 1.64949Z" fill="#D4494C"/>
</svg>
