<svg width="56" height="13" viewBox="0 0 56 13" fill="none" xmlns="http://www.w3.org/2000/svg">
<path d="M17.5377 0.134033L12.1147 12H9.30969L8.57869 3.55103L4.77069 12L1.98269 12.017L0.877686 0.134033H3.42769L3.90369 9.34803L7.93269 0.134033H10.5847L11.2307 9.29703L14.9707 0.134033H17.5377Z" fill="#D4494C"/>
<path d="M34.9527 0.134033L29.5297 12H26.7247L25.9937 3.55103L22.1857 12L19.3977 12.017L18.2927 0.134033H20.8427L21.3187 9.34803L25.3477 0.134033H27.9997L28.6457 9.29703L32.3857 0.134033H34.9527Z" fill="#D4494C"/>
<path d="M52.3678 0.134033L46.9448 12H44.1398L43.4088 3.55103L39.6008 12L36.8128 12.017L35.7078 0.134033H38.2578L38.7338 9.34803L42.7628 0.134033H45.4148L46.0608 9.29703L49.8008 0.134033H52.3678Z" fill="#D4494C"/>
<path d="M53.0848 12.14C52.6448 12.14 52.2915 12.0134 52.0248 11.76C51.7581 11.5067 51.6248 11.1867 51.6248 10.8C51.6248 10.2667 51.8248 9.81337 52.2248 9.44003C52.6381 9.05337 53.1181 8.86003 53.6648 8.86003C54.1048 8.86003 54.4515 8.9867 54.7048 9.24003C54.9715 9.48003 55.1048 9.80003 55.1048 10.2C55.1048 10.7334 54.9048 11.1934 54.5048 11.58C54.1048 11.9534 53.6315 12.14 53.0848 12.14Z" fill="#D4494C"/>
</svg>
