<svg width="16" height="16" viewBox="0 0 16 16" fill="none" xmlns="http://www.w3.org/2000/svg">
<path d="M14 4.5C14 3.11875 12.8813 2 11.5 2C10.1187 2 9 3.11875 9 4.5C9 5.6375 9.75937 6.59688 10.7969 6.9C10.7781 7.40313 10.6656 7.79063 10.4531 8.05313C9.97188 8.65313 8.9125 8.75312 7.79063 8.85625C6.90938 8.9375 5.99687 9.025 5.25 9.38437V4.88438C6.26562 4.56563 7 3.61875 7 2.5C7 1.11875 5.88125 0 4.5 0C3.11875 0 2 1.11875 2 2.5C2 3.61875 2.73438 4.56563 3.75 4.88438V11.1125C2.73438 11.4344 2 12.3813 2 13.5C2 14.8813 3.11875 16 4.5 16C5.88125 16 7 14.8813 7 13.5C7 12.4375 6.3375 11.5281 5.4 11.1687C5.49688 11.0062 5.64375 10.8625 5.86562 10.75C6.37187 10.4938 7.12813 10.425 7.93125 10.35C9.25 10.2281 10.7437 10.0875 11.625 8.99375C12.0625 8.45 12.2844 7.75 12.3 6.87187C13.2875 6.53437 14 5.6 14 4.5ZM4.5 2C4.775 2 5 2.225 5 2.5C5 2.775 4.775 3 4.5 3C4.225 3 4 2.775 4 2.5C4 2.225 4.225 2 4.5 2ZM4.5 14C4.225 14 4 13.775 4 13.5C4 13.225 4.225 13 4.5 13C4.775 13 5 13.225 5 13.5C5 13.775 4.775 14 4.5 14ZM11.5 4C11.775 4 12 4.225 12 4.5C12 4.775 11.775 5 11.5 5C11.225 5 11 4.775 11 4.5C11 4.225 11.225 4 11.5 4Z" fill="#D4494C"/>
</svg>
