<svg width="62" height="12" viewBox="0 0 62 12" fill="none" xmlns="http://www.w3.org/2000/svg">
<path d="M19.3732 0L13.3045 11.8503H9.75661L9.0097 3.61497L5.04169 11.8503H1.49384L0 0H3.29111L3.85129 9.02674L8.07605 0H11.5305L12.2308 9.00535L16.2221 0H19.3732Z" fill="#D4494C"/>
<path d="M39.0673 0L32.9986 11.8503H29.4507L28.7038 3.61497L24.7358 11.8503H21.188L19.6941 0H22.9852L23.5454 9.02674L27.7702 0H31.2247L31.9249 9.00535L35.9162 0H39.0673Z" fill="#D4494C"/>
<path d="M58.7614 0L52.6927 11.8503H49.1448L48.3979 3.61497L44.4299 11.8503H40.8821L39.3882 0H42.6793L43.2395 9.02674L47.4643 0H50.9188L51.619 9.00535L55.6104 0H58.7614Z" fill="#D4494C"/>
<path d="M59.6425 12C59.129 12 58.7167 11.8645 58.4055 11.5936C58.0942 11.3226 57.9386 10.9804 57.9386 10.5668C57.9386 9.99644 58.172 9.51159 58.6389 9.1123C59.1213 8.69875 59.6814 8.49198 60.3194 8.49198C60.8329 8.49198 61.2375 8.62745 61.5332 8.8984C61.8444 9.15508 62 9.49733 62 9.92513C62 10.4955 61.7666 10.9875 61.2998 11.4011C60.8329 11.8004 60.2805 12 59.6425 12Z" fill="#D4494C"/>
</svg>
